REM DIRINDEX 1\2,1\3,1\4\5,1\4\6
REM DIRNAME "folder01","folder02","folder03","folder04","folder05","folder06"
TITLE ""
FILE "Step5_Track76.mp3" MP3
  TRACK 01 AUDIO
    TITLE "0:"
    INDEX 01 00:00:00
  TRACK 02 AUDIO
    TITLE "6:cjc168_828"
    INDEX 01 00:00:22
  TRACK 03 AUDIO
    TITLE "0:"
    INDEX 01 00:01:69
  TRACK 04 AUDIO
    TITLE "6:cjc168_829"
    INDEX 01 00:02:56
  TRACK 05 AUDIO
    TITLE "0:"
    INDEX 01 00:04:08
  TRACK 06 AUDIO
    TITLE "5:cjc168_830"
    INDEX 01 00:04:63
  TRACK 07 AUDIO
    TITLE "0:"
    INDEX 01 00:06:60
  TRACK 08 AUDIO
    TITLE "6:cjc168_831"
    INDEX 01 00:07:42
  TRACK 09 AUDIO
    TITLE "0:"
    INDEX 01 00:08:63
  TRACK 10 AUDIO
    TITLE "5:cjc168_832"
    INDEX 01 00:09:33
  TRACK 11 AUDIO
    TITLE "0:"
    INDEX 01 00:11:55
  TRACK 12 AUDIO
    TITLE "6:cjc168_833"
    INDEX 01 00:12:43
  TRACK 13 AUDIO
    TITLE "0:"
    INDEX 01 00:13:62
  TRACK 14 AUDIO
    TITLE "5:cjc168_834"
    INDEX 01 00:14:44
  TRACK 15 AUDIO
    TITLE "0:"
    INDEX 01 00:16:41
  TRACK 16 AUDIO
    TITLE "6:cjc168_835"
    INDEX 01 00:17:24
  TRACK 17 AUDIO
    TITLE "0:"
    INDEX 01 00:18:49
  TRACK 18 AUDIO
    TITLE "5:cjc168_836"
    INDEX 01 00:19:21
  TRACK 19 AUDIO
    TITLE "0:"
    INDEX 01 00:22:39
  TRACK 20 AUDIO
    TITLE "6:cjc168_837"
    INDEX 01 00:23:27
  TRACK 21 AUDIO
    TITLE "0:"
    INDEX 01 00:24:50
  TRACK 22 AUDIO
    TITLE "5:cjc168_838"
    INDEX 01 00:25:32
  TRACK 23 AUDIO
    TITLE "0:"
    INDEX 01 00:29:24
  TRACK 24 AUDIO
    TITLE "6:cjc168_839"
    INDEX 01 00:30:11
  TRACK 25 AUDIO
    TITLE "0:"
    INDEX 01 00:31:40
  TRACK 26 AUDIO
    TITLE "5:cjc168_840"
    INDEX 01 00:32:10
  TRACK 27 AUDIO
    TITLE "0:"
    INDEX 01 00:34:17
  TRACK 28 AUDIO
    TITLE "6:cjc168_841"
    INDEX 01 00:35:07
  TRACK 29 AUDIO
    TITLE "0:"
    INDEX 01 00:36:30
  TRACK 30 AUDIO
    TITLE "5:cjc168_842"
    INDEX 01 00:37:06
  TRACK 31 AUDIO
    TITLE "0:"
    INDEX 01 00:39:46
  TRACK 32 AUDIO
    TITLE "6:cjc168_843"
    INDEX 01 00:40:27
  TRACK 33 AUDIO
    TITLE "0:"
    INDEX 01 00:41:43
  TRACK 34 AUDIO
    TITLE "5:cjc168_844"
    INDEX 01 00:42:15
  TRACK 35 AUDIO
    TITLE "0:"
    INDEX 01 00:44:02
  TRACK 36 AUDIO
    TITLE "6:cjc168_845"
    INDEX 01 00:44:60
  TRACK 37 AUDIO
    TITLE "0:"
    INDEX 01 00:46:08
  TRACK 38 AUDIO
    TITLE "5:cjc168_846"
    INDEX 01 00:46:65
  TRACK 39 AUDIO
    TITLE "0:"
    INDEX 01 00:49:60
  TRACK 40 AUDIO
    TITLE "6:cjc168_847"
    INDEX 01 00:50:36
  TRACK 41 AUDIO
    TITLE "0:"
    INDEX 01 00:51:61
  TRACK 42 AUDIO
    TITLE "5:cjc168_848"
    INDEX 01 00:52:36
  TRACK 43 AUDIO
    TITLE "0:"
    INDEX 01 00:54:28
  TRACK 44 AUDIO
    TITLE "6:cjc168_849"
    INDEX 01 00:55:05
  TRACK 45 AUDIO
    TITLE "0:"
    INDEX 01 00:56:32
  TRACK 46 AUDIO
    TITLE "5:cjc168_850"
    INDEX 01 00:57:08
  TRACK 47 AUDIO
    TITLE "0:"
    INDEX 01 00:59:70
  TRACK 48 AUDIO
    TITLE "6:cjc168_851"
    INDEX 01 01:00:52
  TRACK 49 AUDIO
    TITLE "0:"
    INDEX 01 01:02:00
  TRACK 50 AUDIO
    TITLE "5:cjc168_852"
    INDEX 01 01:02:54
  TRACK 51 AUDIO
    TITLE "0:"
    INDEX 01 01:05:08
  TRACK 52 AUDIO
    TITLE "6:cjc168_853"
    INDEX 01 01:05:61
  TRACK 53 AUDIO
    TITLE "0:"
    INDEX 01 01:07:26
  TRACK 54 AUDIO
    TITLE "5:cjc168_854"
    INDEX 01 01:08:00
  TRACK 55 AUDIO
    TITLE "0:"
    INDEX 01 01:10:11
  TRACK 56 AUDIO
    TITLE "6:cjc168_855"
    INDEX 01 01:10:70
  TRACK 57 AUDIO
    TITLE "0:"
    INDEX 01 01:12:43
  TRACK 58 AUDIO
    TITLE "5:cjc168_856"
    INDEX 01 01:13:15
  TRACK 59 AUDIO
    TITLE "0:"
    INDEX 01 01:15:57
  TRACK 60 AUDIO
    TITLE "6:cjc168_857"
    INDEX 01 01:16:39
  TRACK 61 AUDIO
    TITLE "0:"
    INDEX 01 01:18:01
  TRACK 62 AUDIO
    TITLE "5:cjc168_858"
    INDEX 01 01:18:54
  TRACK 63 AUDIO
    TITLE "0:"
    INDEX 01 01:21:28
  TRACK 64 AUDIO
    TITLE "6:cjc168_859"
    INDEX 01 01:22:02
  TRACK 65 AUDIO
    TITLE "0:"
    INDEX 01 01:23:49
  TRACK 66 AUDIO
    TITLE "5:cjc168_860"
    INDEX 01 01:24:23
  TRACK 67 AUDIO
    TITLE "0:"
    INDEX 01 01:27:17
  TRACK 68 AUDIO
    TITLE "6:cjc168_861"
    INDEX 01 01:27:70
  TRACK 69 AUDIO
    TITLE "0:"
    INDEX 01 01:29:36
  TRACK 70 AUDIO
    TITLE "5:cjc168_862"
    INDEX 01 01:30:14
  TRACK 71 AUDIO
    TITLE "0:"
    INDEX 01 01:32:52
  TRACK 72 AUDIO
    TITLE "6:cjc168_863"
    INDEX 01 01:33:26
  TRACK 73 AUDIO
    TITLE "0:"
    INDEX 01 01:34:64
  TRACK 74 AUDIO
    TITLE "5:cjc168_864"
    INDEX 01 01:35:44
  TRACK 75 AUDIO
    TITLE "0:"
    INDEX 01 01:38:54
  TRACK 76 AUDIO
    TITLE "6:cjc168_865"
    INDEX 01 01:39:38
  TRACK 77 AUDIO
    TITLE "0:"
    INDEX 01 01:41:04
  TRACK 78 AUDIO
    TITLE "5:cjc168_866"
    INDEX 01 01:41:60
  TRACK 79 AUDIO
    TITLE "0:"
    INDEX 01 01:44:41
  TRACK 80 AUDIO
    TITLE "6:cjc168_867"
    INDEX 01 01:45:19
  TRACK 81 AUDIO
    TITLE "0:"
    INDEX 01 01:46:46
  TRACK 82 AUDIO
    TITLE "5:cjc168_868"
    INDEX 01 01:47:20
  TRACK 83 AUDIO
    TITLE "0:"
    INDEX 01 01:49:64
  TRACK 84 AUDIO
    TITLE "6:cjc168_869"
    INDEX 01 01:50:54
  TRACK 85 AUDIO
    TITLE "0:"
    INDEX 01 01:52:19
  TRACK 86 AUDIO
    TITLE "5:cjc168_870"
    INDEX 01 01:52:72
  TRACK 87 AUDIO
    TITLE "0:"
    INDEX 01 01:56:35
  TRACK 88 AUDIO
    TITLE "6:cjc168_871"
    INDEX 01 01:57:20
  TRACK 89 AUDIO
    TITLE "0:"
    INDEX 01 01:58:65
  TRACK 90 AUDIO
    TITLE "5:cjc168_872"
    INDEX 01 01:59:45
  TRACK 91 AUDIO
    TITLE "0:"
    INDEX 01 02:02:31
  TRACK 92 AUDIO
    TITLE "6:cjc168_873"
    INDEX 01 02:03:27
  TRACK 93 AUDIO
    TITLE "0:"
    INDEX 01 02:04:69
  TRACK 94 AUDIO
    TITLE "5:cjc168_874"
    INDEX 01 02:05:41
  TRACK 95 AUDIO
    TITLE "0:"
    INDEX 01 02:08:61
  TRACK 96 AUDIO
    TITLE "6:cjc168_875"
    INDEX 01 02:09:35
  TRACK 97 AUDIO
    TITLE "0:"
    INDEX 01 02:11:07
  TRACK 98 AUDIO
    TITLE "5:cjc168_876"
    INDEX 01 02:11:58
  TRACK 99 AUDIO
    TITLE "0:"
    INDEX 01 02:15:16
  TRACK 100 AUDIO
    TITLE "6:cjc168_877"
    INDEX 01 02:16:06
  TRACK 101 AUDIO
    TITLE "0:"
    INDEX 01 02:17:45
  TRACK 102 AUDIO
    TITLE "5:cjc168_878"
    INDEX 01 02:18:26
  TRACK 103 AUDIO
    TITLE "0:"
    INDEX 01 02:22:07
  TRACK 104 AUDIO
    TITLE "6:cjc168_879"
    INDEX 01 02:22:67
  TRACK 105 AUDIO
    TITLE "0:"
    INDEX 01 02:24:47
  TRACK 106 AUDIO
    TITLE "5:cjc168_880"
    INDEX 01 02:25:19
  TRACK 107 AUDIO
    TITLE "0:"
    INDEX 01 02:28:07
  TRACK 108 AUDIO
    TITLE "6:cjc168_881"
    INDEX 01 02:28:74
  TRACK 109 AUDIO
    TITLE "0:"
    INDEX 01 02:30:39
  TRACK 110 AUDIO
    TITLE "5:cjc168_882"
    INDEX 01 02:31:23
  TRACK 111 AUDIO
    TITLE "0:"
    INDEX 01 02:33:55
  TRACK 112 AUDIO
    TITLE "6:cjc168_883"
    INDEX 01 02:34:31
  TRACK 113 AUDIO
    TITLE "0:"
    INDEX 01 02:35:70
  TRACK 114 AUDIO
    TITLE "5:cjc168_884"
    INDEX 01 02:36:48
  TRACK 115 AUDIO
    TITLE "0:"
    INDEX 01 02:38:74
  TRACK 116 AUDIO
    TITLE "6:cjc168_885"
    INDEX 01 02:39:56
  TRACK 117 AUDIO
    TITLE "0:"
    INDEX 01 02:41:22
  TRACK 118 AUDIO
    TITLE "5:cjc168_886"
    INDEX 01 02:42:01
  TRACK 119 AUDIO
    TITLE "0:"
    INDEX 01 02:45:17
  TRACK 120 AUDIO
    TITLE "6:cjc168_887"
    INDEX 01 02:45:70
  TRACK 121 AUDIO
    TITLE "0:"
    INDEX 01 02:47:24
  TRACK 122 AUDIO
    TITLE "5:cjc168_888"
    INDEX 01 02:47:69
  TRACK 123 AUDIO
    TITLE "0:"
    INDEX 01 02:50:28
  TRACK 124 AUDIO
    TITLE "6:cjc168_889"
    INDEX 01 02:51:14
  TRACK 125 AUDIO
    TITLE "0:"
    INDEX 01 02:52:59
  TRACK 126 AUDIO
    TITLE "5:cjc168_890"
    INDEX 01 02:53:36
  TRACK 127 AUDIO
    TITLE "0:"
    INDEX 01 02:56:09
  TRACK 128 AUDIO
    TITLE "6:cjc168_891"
    INDEX 01 02:56:72
  TRACK 129 AUDIO
    TITLE "0:"
    INDEX 01 02:58:51
  TRACK 130 AUDIO
    TITLE "5:cjc168_892"
    INDEX 01 02:59:21
  TRACK 131 AUDIO
    TITLE "0:"
    INDEX 01 03:02:10
  TRACK 132 AUDIO
    TITLE "6:cjc168_893"
    INDEX 01 03:02:69
  TRACK 133 AUDIO
    TITLE "0:"
    INDEX 01 03:04:38
  TRACK 134 AUDIO
    TITLE "5:cjc168_894"
    INDEX 01 03:05:20
  TRACK 135 AUDIO
    TITLE "0:"
    INDEX 01 03:07:46
  TRACK 136 AUDIO
    TITLE "6:cjc168_895"
    INDEX 01 03:08:28
  TRACK 137 AUDIO
    TITLE "0:"
    INDEX 01 03:10:04
  TRACK 138 AUDIO
    TITLE "5:cjc168_896"
    INDEX 01 03:10:53
  TRACK 139 AUDIO
    TITLE "0:"
    INDEX 01 03:13:25
  TRACK 140 AUDIO
    TITLE "6:cjc168_897"
    INDEX 01 03:14:03
  TRACK 141 AUDIO
    TITLE "0:"
    INDEX 01 03:15:44
  TRACK 142 AUDIO
    TITLE "5:cjc168_898"
    INDEX 01 03:16:24
  TRACK 143 AUDIO
    TITLE "0:"
    INDEX 01 03:20:16
  TRACK 144 AUDIO
    TITLE "6:cjc168_899"
    INDEX 01 03:20:73
  TRACK 145 AUDIO
    TITLE "0:"
    INDEX 01 03:22:46
  TRACK 146 AUDIO
    TITLE "5:cjc168_900"
    INDEX 01 03:23:16
  TRACK 147 AUDIO
    TITLE "0:"
    INDEX 01 03:25:66
  TRACK 148 AUDIO
    TITLE "6:cjc168_901"
    INDEX 01 03:26:50
  TRACK 149 AUDIO
    TITLE "0:"
    INDEX 01 03:28:19
  TRACK 150 AUDIO
    TITLE "5:cjc168_902"
    INDEX 01 03:28:74
  TRACK 151 AUDIO
    TITLE "0:"
    INDEX 01 03:31:27
  TRACK 152 AUDIO
    TITLE "6:cjc168_903"
    INDEX 01 03:32:07
  TRACK 153 AUDIO
    TITLE "0:"
    INDEX 01 03:33:50
  TRACK 154 AUDIO
    TITLE "5:cjc168_904"
    INDEX 01 03:34:28
  TRACK 155 AUDIO
    TITLE "0:"
    INDEX 01 03:36:17
  TRACK 156 AUDIO
    TITLE "6:cjc168_905"
    INDEX 01 03:37:00
  TRACK 157 AUDIO
    TITLE "0:"
    INDEX 01 03:38:41
  TRACK 158 AUDIO
    TITLE "5:cjc168_906"
    INDEX 01 03:39:19
  TRACK 159 AUDIO
    TITLE "0:"
    INDEX 01 03:42:39
  TRACK 160 AUDIO
    TITLE "6:cjc168_907"
    INDEX 01 03:43:17
  TRACK 161 AUDIO
    TITLE "0:"
    INDEX 01 03:44:46
  TRACK 162 AUDIO
    TITLE "5:cjc168_908"
    INDEX 01 03:45:20
  TRACK 163 AUDIO
    TITLE "0:"
    INDEX 01 03:48:16
  TRACK 164 AUDIO
    TITLE "6:cjc168_909"
    INDEX 01 03:49:10
  TRACK 165 AUDIO
    TITLE "0:"
    INDEX 01 03:50:48
  TRACK 166 AUDIO
    TITLE "5:cjc168_910"
    INDEX 01 03:51:28
  TRACK 167 AUDIO
    TITLE "0:"
    INDEX 01 03:53:45
  TRACK 168 AUDIO
    TITLE "6:cjc168_911"
    INDEX 01 03:54:24
  TRACK 169 AUDIO
    TITLE "0:"
    INDEX 01 03:56:02
  TRACK 170 AUDIO
    TITLE "5:cjc168_912"
    INDEX 01 03:56:53
  TRACK 171 AUDIO
    TITLE "0:"
    INDEX 01 04:00:11
  TRACK 172 AUDIO
    TITLE "6:cjc168_913"
    INDEX 01 04:00:66
  TRACK 173 AUDIO
    TITLE "0:"
    INDEX 01 04:02:38
  TRACK 174 AUDIO
    TITLE "5:cjc168_914"
    INDEX 01 04:03:15
  TRACK 175 AUDIO
    TITLE "5:cjc168_915"
    INDEX 01 04:07:25
  TRACK 176 AUDIO
    TITLE "0:"
    INDEX 01 04:09:30
  TRACK 177 AUDIO
    TITLE "6:cjc168_916"
    INDEX 01 04:10:19
  TRACK 178 AUDIO
    TITLE "0:"
    INDEX 01 04:11:66
  TRACK 179 AUDIO
    TITLE "5:cjc168_917"
    INDEX 01 04:12:46
  TRACK 180 AUDIO
    TITLE "0:"
    INDEX 01 04:16:59
  TRACK 181 AUDIO
    TITLE "6:cjc168_918"
    INDEX 01 04:17:41
  TRACK 182 AUDIO
    TITLE "0:"
    INDEX 01 04:19:07
  TRACK 183 AUDIO
    TITLE "5:cjc168_919"
    INDEX 01 04:19:69
  TRACK 184 AUDIO
    TITLE "5:cjc168_920"
    INDEX 01 04:21:43
  TRACK 185 AUDIO
    TITLE "0:"
    INDEX 01 04:23:57
  TRACK 186 AUDIO
    TITLE "6:cjc168_921"
    INDEX 01 04:24:39
  TRACK 187 AUDIO
    TITLE "0:"
    INDEX 01 04:26:19
  TRACK 188 AUDIO
    TITLE "5:cjc168_922"
    INDEX 01 04:26:64
  TRACK 189 AUDIO
    TITLE "0:"
    INDEX 01 04:29:58
  TRACK 190 AUDIO
    TITLE "6:cjc168_923"
    INDEX 01 04:30:44
  TRACK 191 AUDIO
    TITLE "0:"
    INDEX 01 04:32:11
  TRACK 192 AUDIO
    TITLE "5:cjc168_924"
    INDEX 01 04:32:74
  TRACK 193 AUDIO
    TITLE "0:"
    INDEX 01 04:35:14
  TRACK 194 AUDIO
    TITLE "6:cjc168_925"
    INDEX 01 04:35:64
  TRACK 195 AUDIO
    TITLE "0:"
    INDEX 01 04:37:28
  TRACK 196 AUDIO
    TITLE "5:cjc168_926"
    INDEX 01 04:38:06
  TRACK 197 AUDIO
    TITLE "0:"
    INDEX 01 04:40:28
  TRACK 198 AUDIO
    TITLE "6:cjc168_927"
    INDEX 01 04:41:06
  TRACK 199 AUDIO
    TITLE "0:"
    INDEX 01 04:42:49
  TRACK 200 AUDIO
    TITLE "5:cjc168_928"
    INDEX 01 04:43:37
  TRACK 201 AUDIO
    TITLE "0:"
    INDEX 01 04:45:63
  TRACK 202 AUDIO
    TITLE "6:cjc168_929"
    INDEX 01 04:46:43
  TRACK 203 AUDIO
    TITLE "0:"
    INDEX 01 04:48:01
  TRACK 204 AUDIO
    TITLE "5:cjc168_930"
    INDEX 01 04:48:51
  TRACK 205 AUDIO
    TITLE "0:"
    INDEX 01 04:51:30
  TRACK 206 AUDIO
    TITLE "6:cjc168_931"
    INDEX 01 04:52:08
  TRACK 207 AUDIO
    TITLE "0:"
    INDEX 01 04:53:47
  TRACK 208 AUDIO
    TITLE "5:cjc168_932"
    INDEX 01 04:54:30
  TRACK 209 AUDIO
    TITLE "0:"
    INDEX 01 04:56:49
  TRACK 210 AUDIO
    TITLE "6:cjc168_933"
    INDEX 01 04:57:31
  TRACK 211 AUDIO
    TITLE "0:"
    INDEX 01 04:59:08
  TRACK 212 AUDIO
    TITLE "5:cjc168_934"
    INDEX 01 04:59:61
  TRACK 213 AUDIO
    TITLE "0:"
    INDEX 01 05:02:10
  TRACK 214 AUDIO
    TITLE "6:cjc168_935"
    INDEX 01 05:02:61
  TRACK 215 AUDIO
    TITLE "0:"
    INDEX 01 05:04:29
  TRACK 216 AUDIO
    TITLE "5:cjc168_936"
    INDEX 01 05:05:09
  TRACK 217 AUDIO
    TITLE "0:"
    INDEX 01 05:07:39
  TRACK 218 AUDIO
    TITLE "6:cjc168_937"
    INDEX 01 05:08:19
  TRACK 219 AUDIO
    TITLE "0:"
    INDEX 01 05:09:71
  TRACK 220 AUDIO
    TITLE "5:cjc168_938"
    INDEX 01 05:10:43
  TRACK 221 AUDIO
    TITLE "0:"
    INDEX 01 05:13:22
  TRACK 222 AUDIO
    TITLE "6:cjc168_939"
    INDEX 01 05:14:14
  TRACK 223 AUDIO
    TITLE "0:"
    INDEX 01 05:15:50
  TRACK 224 AUDIO
    TITLE "5:cjc168_940"
    INDEX 01 05:16:38
  TRACK 225 AUDIO
    TITLE "0:"
    INDEX 01 05:18:60
  TRACK 226 AUDIO
    TITLE "6:cjc168_941"
    INDEX 01 05:19:42
  TRACK 227 AUDIO
    TITLE "0:"
    INDEX 01 05:21:21
  TRACK 228 AUDIO
    TITLE "5:cjc168_942"
    INDEX 01 05:21:69
  TRACK 229 AUDIO
    TITLE "0:"
    INDEX 01 05:24:10
  TRACK 230 AUDIO
    TITLE "6:cjc168_943"
    INDEX 01 05:24:73
  TRACK 231 AUDIO
    TITLE "0:"
    INDEX 01 05:26:42
  TRACK 232 AUDIO
    TITLE "5:cjc168_944"
    INDEX 01 05:27:24
  TRACK 233 AUDIO
    TITLE "0:"
    INDEX 01 05:29:39
  TRACK 234 AUDIO
    TITLE "6:cjc168_945"
    INDEX 01 05:30:22
  TRACK 235 AUDIO
    TITLE "0:"
    INDEX 01 05:31:57
  TRACK 236 AUDIO
    TITLE "5:cjc168_946"
    INDEX 01 05:32:43
  TRACK 237 AUDIO
    TITLE "0:"
    INDEX 01 05:34:36
  TRACK 238 AUDIO
    TITLE "6:cjc168_947"
    INDEX 01 05:35:26
  TRACK 239 AUDIO
    TITLE "0:"
    INDEX 01 05:36:68
  TRACK 240 AUDIO
    TITLE "5:cjc168_948"
    INDEX 01 05:37:44
  TRACK 241 AUDIO
    TITLE "0:"
    INDEX 01 05:42:10
  TRACK 242 AUDIO
    TITLE "6:cjc168_949"
    INDEX 01 05:42:65
  TRACK 243 AUDIO
    TITLE "0:"
    INDEX 01 05:44:24
  TRACK 244 AUDIO
    TITLE "5:cjc168_950"
    INDEX 01 05:44:68
  TRACK 245 AUDIO
    TITLE "0:"
    INDEX 01 05:48:60
  TRACK 246 AUDIO
    TITLE "6:cjc168_951"
    INDEX 01 05:49:43
  TRACK 247 AUDIO
    TITLE "0:"
    INDEX 01 05:51:07
  TRACK 248 AUDIO
    TITLE "5:cjc168_952"
    INDEX 01 05:51:62
  TRACK 249 AUDIO
    TITLE "0:"
    INDEX 01 05:56:37
  TRACK 250 AUDIO
    TITLE "6:cjc168_953"
    INDEX 01 05:57:21
  TRACK 251 AUDIO
    TITLE "0:"
    INDEX 01 05:59:01
  TRACK 252 AUDIO
    TITLE "5:cjc168_954"
    INDEX 01 05:59:52
  TRACK 253 AUDIO
    TITLE "0:"
    INDEX 01 06:02:52
  TRACK 254 AUDIO
    TITLE "6:cjc168_955"
    INDEX 01 06:03:36
  TRACK 255 AUDIO
    TITLE "0:"
    INDEX 01 06:05:03
  TRACK 256 AUDIO
    TITLE "5:cjc168_956"
    INDEX 01 06:05:56
  TRACK 257 AUDIO
    TITLE "0:"
    INDEX 01 06:08:15
  TRACK 258 AUDIO
    TITLE "6:cjc168_957"
    INDEX 01 06:08:68
  TRACK 259 AUDIO
    TITLE "0:"
    INDEX 01 06:10:47
  TRACK 260 AUDIO
    TITLE "5:cjc168_958"
    INDEX 01 06:11:23
  TRACK 261 AUDIO
    TITLE "0:"
    INDEX 01 06:14:61
  TRACK 262 AUDIO
    TITLE "6:cjc168_959"
    INDEX 01 06:15:52
  TRACK 263 AUDIO
    TITLE "0:"
    INDEX 01 06:17:24
  TRACK 264 AUDIO
    TITLE "5:cjc168_960"
    INDEX 01 06:18:10
  TRACK 265 AUDIO
    TITLE "0:"
    INDEX 01 06:20:28
  TRACK 266 AUDIO
    TITLE "6:cjc168_961"
    INDEX 01 06:21:12
  TRACK 267 AUDIO
    TITLE "0:"
    INDEX 01 06:22:68
  TRACK 268 AUDIO
    TITLE "5:cjc168_962"
    INDEX 01 06:23:38
  TRACK 269 AUDIO
    TITLE "0:"
    INDEX 01 06:26:03
  TRACK 270 AUDIO
    TITLE "6:cjc168_963"
    INDEX 01 06:26:64
  TRACK 271 AUDIO
    TITLE "0:"
    INDEX 01 06:28:43
  TRACK 272 AUDIO
    TITLE "5:cjc168_964"
    INDEX 01 06:29:25
  TRACK 273 AUDIO
    TITLE "0:"
    INDEX 01 06:32:24
  TRACK 274 AUDIO
    TITLE "6:cjc168_965"
    INDEX 01 06:33:03
  TRACK 275 AUDIO
    TITLE "0:"
    INDEX 01 06:34:46
  TRACK 276 AUDIO
    TITLE "5:cjc168_966"
    INDEX 01 06:35:22
  TRACK 277 AUDIO
    TITLE "0:"
    INDEX 01 06:37:19
  TRACK 278 AUDIO
    TITLE "6:cjc168_967"
    INDEX 01 06:38:01
  TRACK 279 AUDIO
    TITLE "0:"
    INDEX 01 06:39:47
  TRACK 280 AUDIO
    TITLE "5:cjc168_968"
    INDEX 01 06:40:25
  TRACK 281 AUDIO
    TITLE "0:"
    INDEX 01 06:42:73
  TRACK 282 AUDIO
    TITLE "6:cjc168_969"
    INDEX 01 06:43:57
  TRACK 283 AUDIO
    TITLE "0:"
    INDEX 01 06:45:14
  TRACK 284 AUDIO
    TITLE "5:cjc168_970"
    INDEX 01 06:45:65
  TRACK 285 AUDIO
    TITLE "0:"
    INDEX 01 06:47:64
  TRACK 286 AUDIO
    TITLE "6:cjc168_971"
    INDEX 01 06:48:48
  TRACK 287 AUDIO
    TITLE "0:"
    INDEX 01 06:50:14
  TRACK 288 AUDIO
    TITLE "5:cjc168_972"
    INDEX 01 06:50:74
  TRACK 289 AUDIO
    TITLE "0:"
    INDEX 01 06:52:54
  TRACK 290 AUDIO
    TITLE "6:cjc168_973"
    INDEX 01 06:53:45
  TRACK 291 AUDIO
    TITLE "0:"
    INDEX 01 06:55:27
  TRACK 292 AUDIO
    TITLE "5:cjc168_974"
    INDEX 01 06:56:02
  TRACK 293 AUDIO
    TITLE "0:"
    INDEX 01 06:57:69
  TRACK 294 AUDIO
    TITLE "6:cjc168_975"
    INDEX 01 06:58:56
  TRACK 295 AUDIO
    TITLE "0:"
    INDEX 01 07:00:30
  TRACK 296 AUDIO
    TITLE "5:cjc168_976"
    INDEX 01 07:01:13
  TRACK 297 AUDIO
    TITLE "0:"
    INDEX 01 07:03:14
  TRACK 298 AUDIO
    TITLE "6:cjc168_977"
    INDEX 01 07:03:65
  TRACK 299 AUDIO
    TITLE "0:"
    INDEX 01 07:05:52
  TRACK 300 AUDIO
    TITLE "5:cjc168_978"
    INDEX 01 07:06:28
  TRACK 301 AUDIO
    TITLE "0:"
    INDEX 01 07:09:42
  TRACK 302 AUDIO
    TITLE "6:cjc168_979"
    INDEX 01 07:10:22
  TRACK 303 AUDIO
    TITLE "0:"
    INDEX 01 07:11:71
  TRACK 304 AUDIO
    TITLE "5:cjc168_980"
    INDEX 01 07:12:54
  TRACK 305 AUDIO
    TITLE "0:"
    INDEX 01 07:15:37
